<?xml version="1.0" encoding="utf-8"?>
<!-- Generated by IcoMoon.io -->
<!DOCTYPE svg PUBLIC "-//W3C//DTD SVG 1.1//EN" "http://www.w3.org/Graphics/SVG/1.1/DTD/svg11.dtd">
<svg version="1.1" xmlns="http://www.w3.org/2000/svg" xmlns:xlink="http://www.w3.org/1999/xlink" width="488" height="40" viewBox="0 0 488 40">
<svg id="icon--search" width="40" height="40" viewBox="0 0 40 40" x="0" y="0">
<path fill="#000000" d="M35.090 30.936l-7.558-7.558c1.14-1.874 1.796-4.070 1.796-6.424 0-6.832-5.922-12.754-12.756-12.754-6.832 0-12.372 5.54-12.372 12.372 0 6.834 5.92 12.756 12.754 12.756 2.272 0 4.4-0.616 6.23-1.686l7.598 7.6c0.746 0.744 1.95 0.744 2.692 0l1.886-1.884c0.742-0.744 0.472-1.68-0.27-2.422zM8.008 16.572c0-4.73 3.834-8.566 8.564-8.566 4.732 0 8.948 4.216 8.948 8.948s-3.834 8.566-8.566 8.566-8.946-4.216-8.946-8.948z"></path>
</svg>
<svg id="icon--settings" width="40" height="40" viewBox="0 0 40 40" x="56" y="0">
<path fill="#000000" d="M33.57 20c0-2.096 1.29-3.75 3.23-4.886-0.352-1.168-0.812-2.29-1.382-3.344-2.18 0.57-3.942-0.284-5.422-1.764-1.484-1.482-1.938-3.246-1.368-5.422-1.054-0.57-2.172-1.036-3.344-1.384-1.136 1.942-3.19 3.232-5.284 3.232s-4.146-1.29-5.284-3.232c-1.172 0.348-2.29 0.814-3.344 1.382 0.568 2.178 0.116 3.942-1.366 5.424-1.482 1.48-3.246 2.334-5.422 1.766-0.57 1.052-1.034 2.174-1.384 3.342 1.942 1.136 3.232 2.79 3.232 4.886 0 2.094-1.29 4.148-3.232 5.286 0.35 1.17 0.814 2.29 1.384 3.344 2.178-0.57 3.94-0.116 5.422 1.366s1.934 3.244 1.366 5.422c1.054 0.57 2.174 1.036 3.344 1.384 1.138-1.944 3.19-3.232 5.284-3.232s4.15 1.29 5.286 3.232c1.172-0.35 2.29-0.814 3.344-1.384-0.57-2.178-0.118-3.94 1.368-5.422 1.48-1.48 3.242-2.334 5.422-1.766 0.57-1.054 1.032-2.174 1.382-3.344-1.942-1.138-3.232-2.792-3.232-4.886zM20 27.306c-4.034 0-7.304-3.272-7.304-7.306s3.27-7.306 7.304-7.306c4.036 0 7.306 3.272 7.306 7.306s-3.27 7.306-7.306 7.306z"></path>
</svg>
<svg id="icon--close" width="40" height="40" viewBox="0 0 40 40" x="112" y="0">
<path fill="#000000" d="M28.698 26.304l-5.516-6.304 5.516-6.304c0.938-0.938 0.938-2.458 0-3.394s-2.458-0.936-3.394 0l-5.304 6.062-5.302-6.060c-0.938-0.938-2.458-0.938-3.394 0s-0.936 2.458 0 3.394l5.514 6.302-5.516 6.304c-0.936 0.938-0.936 2.454 0 3.39 0.938 0.938 2.458 0.938 3.394 0l5.304-6.058 5.302 6.058c0.938 0.938 2.458 0.938 3.394 0s0.938-2.452 0.002-3.39z"></path>
</svg>
<svg id="icon--menu" width="40" height="40" viewBox="0 0 40 40" x="168" y="0">
<path fill="#000000" d="M32 18h-24c-1.104 0-2 0.896-2 2s0.896 2 2 2h24c1.106 0 2-0.896 2-2s-0.894-2-2-2zM8 14h24c1.106 0 2-0.896 2-2s-0.894-2-2-2h-24c-1.104 0-2 0.896-2 2s0.896 2 2 2zM32 26h-24c-1.104 0-2 0.894-2 2s0.896 2 2 2h24c1.106 0 2-0.894 2-2s-0.894-2-2-2z"></path>
</svg>
<svg id="icon--arrow-down" width="40" height="40" viewBox="0 0 40 40" x="224" y="0">
<path fill="#000000" d="M26.836 15.202c0.542-0.536 1.418-0.536 1.958 0 0.542 0.536 0.542 1.402 0 1.938l-7.814 7.66c-0.542 0.536-1.418 0.536-1.958 0l-7.816-7.66c-0.54-0.536-0.54-1.402 0-1.938 0.542-0.536 1.416-0.536 1.958 0l6.836 6.28 6.836-6.28z"></path>
</svg>
<svg id="icon--arrow-up" width="40" height="40" viewBox="0 0 40 40" x="280" y="0">
<path fill="#000000" d="M13.162 24.798c-0.542 0.536-1.416 0.536-1.958 0-0.54-0.536-0.542-1.402 0-1.94l7.816-7.656c0.542-0.536 1.418-0.536 1.958 0l7.816 7.658c0.542 0.538 0.542 1.404 0 1.94s-1.416 0.536-1.958 0l-6.838-6.282-6.836 6.28z"></path>
</svg>
<svg id="icon--arrow-right" width="40" height="40" viewBox="0 0 40 40" x="336" y="0">
<path fill="#000000" d="M15.202 26.836c-0.536 0.542-0.536 1.418 0 1.958 0.534 0.542 1.402 0.542 1.938 0l7.66-7.814c0.536-0.542 0.536-1.418 0-1.958l-7.66-7.816c-0.536-0.542-1.402-0.542-1.938 0s-0.536 1.416-0.002 1.956l6.282 6.838-6.28 6.836z"></path>
</svg>
<svg id="icon--select" width="40" height="40" viewBox="0 0 40 40" x="392" y="0">
<path fill="#000000" d="M20 0l-9.2 14.6h18.398l-9.198-14.6zM20.002 40l9.198-14.6-18.4-0.002 9.202 14.602z"></path>
</svg>
</svg>
