<?xml version="1.0" encoding="utf-8"?>
<!-- Generated by IcoMoon.io -->
<!DOCTYPE svg PUBLIC "-//W3C//DTD SVG 1.1//EN" "http://www.w3.org/Graphics/SVG/1.1/DTD/svg11.dtd">
<svg version="1.1" xmlns="http://www.w3.org/2000/svg" xmlns:xlink="http://www.w3.org/1999/xlink" width="40" height="40" viewBox="0 0 40 40">
<path fill="#000000" d="M28.698 26.304l-5.516-6.304 5.516-6.304c0.938-0.938 0.938-2.458 0-3.394s-2.458-0.936-3.394 0l-5.304 6.062-5.302-6.060c-0.938-0.938-2.458-0.938-3.394 0s-0.936 2.458 0 3.394l5.514 6.302-5.516 6.304c-0.936 0.938-0.936 2.454 0 3.39 0.938 0.938 2.458 0.938 3.394 0l5.304-6.058 5.302 6.058c0.938 0.938 2.458 0.938 3.394 0s0.938-2.452 0.002-3.39z"></path>
</svg>
