<?xml version="1.0" encoding="utf-8"?>
<!-- Generated by IcoMoon.io -->
<!DOCTYPE svg PUBLIC "-//W3C//DTD SVG 1.1//EN" "http://www.w3.org/Graphics/SVG/1.1/DTD/svg11.dtd">
<svg version="1.1" xmlns="http://www.w3.org/2000/svg" xmlns:xlink="http://www.w3.org/1999/xlink" width="40" height="40" viewBox="0 0 40 40">
<path fill="#000000" d="M33.57 20c0-2.096 1.29-3.75 3.23-4.886-0.352-1.168-0.812-2.29-1.382-3.344-2.18 0.57-3.942-0.284-5.422-1.764-1.484-1.482-1.938-3.246-1.368-5.422-1.054-0.57-2.172-1.036-3.344-1.384-1.136 1.942-3.19 3.232-5.284 3.232s-4.146-1.29-5.284-3.232c-1.172 0.348-2.29 0.814-3.344 1.382 0.568 2.178 0.116 3.942-1.366 5.424-1.482 1.48-3.246 2.334-5.422 1.766-0.57 1.052-1.034 2.174-1.384 3.342 1.942 1.136 3.232 2.79 3.232 4.886 0 2.094-1.29 4.148-3.232 5.286 0.35 1.17 0.814 2.29 1.384 3.344 2.178-0.57 3.94-0.116 5.422 1.366s1.934 3.244 1.366 5.422c1.054 0.57 2.174 1.036 3.344 1.384 1.138-1.944 3.19-3.232 5.284-3.232s4.15 1.29 5.286 3.232c1.172-0.35 2.29-0.814 3.344-1.384-0.57-2.178-0.118-3.94 1.368-5.422 1.48-1.48 3.242-2.334 5.422-1.766 0.57-1.054 1.032-2.174 1.382-3.344-1.942-1.138-3.232-2.792-3.232-4.886zM20 27.306c-4.034 0-7.304-3.272-7.304-7.306s3.27-7.306 7.304-7.306c4.036 0 7.306 3.272 7.306 7.306s-3.27 7.306-7.306 7.306z"></path>
</svg>
